<?xml version="1.0" standalone="no"?>
<!DOCTYPE svg PUBLIC "-//W3C//DTD SVG 20010904//EN"
 "http://www.w3.org/TR/2001/REC-SVG-20010904/DTD/svg10.dtd">
<svg version="1.0" xmlns="http://www.w3.org/2000/svg"
 width="260.000000pt" height="260.000000pt" viewBox="0 0 260.000000 260.000000"
 preserveAspectRatio="xMidYMid meet">
<metadata>
Created by potrace 1.11, written by Peter Selinger 2001-2013
</metadata>
<g transform="translate(0.000000,260.000000) scale(0.100000,-0.100000)"
fill="#000000" stroke="none">
<path d="M1156 2568 c4 -13 0 -16 -20 -14 -14 2 -26 0 -26 -3 0 -3 -12 -7 -27
-8 -53 -4 -103 -15 -103 -24 0 -4 -9 -6 -20 -4 -11 2 -18 0 -15 -6 4 -5 -5 -9
-19 -9 -13 0 -32 -7 -40 -16 -11 -10 -16 -11 -16 -3 0 8 -6 6 -18 -4 -10 -10
-22 -14 -25 -10 -4 3 -7 1 -7 -5 0 -7 -7 -12 -15 -12 -8 0 -15 -5 -15 -11 0
-5 -4 -7 -10 -4 -5 3 -10 1 -10 -4 0 -6 -3 -10 -7 -10 -20 3 -34 -2 -29 -10 5
-8 -29 -25 -46 -22 -5 1 -8 -6 -8 -15 0 -8 -5 -12 -10 -9 -6 3 -17 -1 -26 -9
-9 -9 -20 -14 -25 -11 -5 4 -9 2 -9 -3 0 -14 -36 -52 -44 -45 -3 3 -6 -2 -6
-12 0 -10 -3 -15 -6 -12 -4 3 -15 -5 -26 -18 -11 -14 -24 -23 -29 -20 -5 4 -6
-2 -2 -12 3 -10 3 -15 -2 -11 -8 8 -22 -6 -59 -56 -10 -14 -22 -23 -27 -20 -5
3 -6 -1 -3 -9 3 -8 0 -18 -5 -22 -6 -3 -9 -11 -5 -16 3 -5 0 -8 -7 -7 -7 2
-13 -3 -14 -10 0 -7 -6 -17 -14 -21 -8 -5 -11 -16 -8 -26 4 -9 3 -14 -3 -10
-6 4 -15 -7 -21 -24 -6 -17 -15 -31 -21 -31 -5 0 -7 -4 -3 -9 3 -5 -2 -17 -12
-26 -9 -10 -18 -25 -19 -34 -5 -36 -14 -65 -22 -70 -5 -3 -8 -16 -7 -29 1 -13
-2 -25 -7 -28 -4 -3 -6 -10 -3 -15 4 -5 1 -9 -6 -9 -8 0 -9 -3 0 -14 8 -10 8
-16 -2 -25 -9 -7 -13 -31 -12 -70 0 -33 -2 -58 -6 -55 -4 2 -10 -3 -13 -12 -3
-8 -2 -13 3 -10 5 3 11 -1 14 -9 4 -9 1 -12 -8 -9 -14 6 -15 -19 -2 -32 4 -4
7 -14 7 -23 0 -13 -2 -13 -9 -3 -5 8 -8 -2 -7 -27 1 -31 4 -40 15 -36 11 4 12
3 1 -10 -7 -8 -8 -15 -3 -15 5 0 8 -12 7 -27 -1 -16 3 -33 8 -40 6 -7 5 -14
-2 -18 -8 -5 -5 -12 7 -22 10 -8 12 -12 6 -8 -9 4 -11 1 -7 -9 3 -9 10 -16 14
-16 5 0 7 -9 5 -20 -2 -11 2 -20 8 -20 7 0 6 -4 -3 -10 -11 -7 -11 -10 -2 -10
7 0 10 -4 7 -10 -3 -5 -2 -10 4 -10 5 0 11 -15 13 -32 2 -20 8 -32 15 -31 7 2
12 0 11 -5 -2 -12 14 -62 21 -62 6 0 32 -60 30 -69 0 -2 6 -8 15 -13 9 -5 14
-13 11 -19 -4 -5 -1 -9 5 -9 6 0 8 -4 5 -10 -3 -5 -1 -10 5 -10 6 0 14 -8 17
-17 4 -10 24 -34 45 -55 21 -20 38 -41 38 -45 0 -11 83 -87 93 -85 4 1 7 -2 7
-8 0 -5 16 -25 35 -44 19 -20 35 -33 35 -31 0 2 35 -31 78 -73 42 -42 76 -80
74 -84 -1 -5 2 -8 8 -8 5 0 20 -11 34 -25 14 -14 31 -25 37 -25 7 0 10 -3 6
-6 -7 -8 12 -28 36 -37 9 -3 17 -13 17 -22 0 -8 6 -15 13 -15 6 0 23 -16 36
-35 13 -19 27 -32 31 -30 5 3 11 -4 15 -15 3 -11 12 -20 19 -20 7 0 31 -20 53
-44 23 -25 44 -42 47 -39 3 4 6 0 6 -8 0 -8 11 -23 25 -33 13 -10 22 -22 19
-27 -3 -5 5 -9 17 -9 12 0 20 -3 17 -6 -4 -3 6 -18 20 -34 21 -22 30 -26 44
-19 10 5 18 17 18 25 0 8 4 13 8 10 5 -3 15 4 22 15 8 10 20 19 28 19 7 0 10
5 7 11 -8 11 25 40 37 33 4 -3 5 2 2 11 -5 11 0 18 15 22 11 3 18 9 15 14 -3
5 2 9 12 9 13 0 14 3 4 15 -9 11 -9 15 -1 15 7 0 9 5 6 10 -4 6 -11 8 -16 4
-11 -6 -79 61 -79 77 0 5 -7 9 -15 9 -8 0 -15 7 -15 16 0 10 -6 14 -15 10 -8
-3 -15 0 -15 6 0 6 -16 25 -34 43 -19 18 -32 36 -28 40 4 5 2 6 -3 2 -6 -3
-19 1 -30 9 -10 8 -16 14 -12 14 4 0 -3 10 -15 22 -13 13 -26 22 -30 20 -5 -1
-8 2 -8 7 0 11 -101 111 -112 111 -5 0 -6 4 -3 10 3 6 1 10 -6 10 -15 0 -99
86 -99 101 0 5 -5 7 -10 4 -6 -3 -13 1 -16 9 -3 9 -10 13 -15 10 -5 -3 -9 4
-9 16 0 12 -5 18 -10 15 -6 -3 -13 1 -16 9 -3 9 -13 16 -22 16 -8 0 -12 3 -9
6 7 7 -42 54 -56 54 -5 0 -5 4 -2 10 3 5 -1 10 -10 10 -9 0 -14 4 -11 8 3 5
-6 15 -19 22 -13 7 -22 17 -19 22 3 4 -2 8 -10 8 -9 0 -16 4 -16 9 0 5 -16 26
-35 45 -19 20 -35 41 -35 46 0 5 -8 15 -17 22 -10 7 -20 22 -21 33 -2 11 -7
22 -12 25 -13 8 -40 69 -38 82 2 7 -2 12 -7 11 -6 -1 -11 6 -12 15 -1 9 -4 26
-6 37 -3 11 -6 26 -6 33 -1 7 -5 10 -11 7 -5 -3 -10 -2 -10 4 0 5 5 13 11 16
6 5 4 12 -8 21 -14 11 -15 13 -3 14 13 0 13 1 0 10 -11 7 -11 10 -2 10 10 0
10 4 0 23 -15 27 -17 77 -3 77 5 0 3 5 -5 10 -13 9 -13 10 0 10 13 0 13 1 0
10 -10 6 -11 10 -2 10 6 0 12 5 12 11 0 5 -4 8 -9 5 -10 -7 -8 9 3 36 4 9 5
22 1 28 -3 5 -1 10 5 10 8 0 7 6 -1 21 -9 17 -8 20 2 14 9 -6 11 -2 6 14 -3
14 0 24 9 28 8 3 14 9 14 15 0 5 -6 6 -12 1 -7 -4 -5 5 5 20 10 15 15 32 12
36 -3 5 -1 11 5 13 6 2 12 14 15 27 2 12 9 29 15 35 5 7 7 16 3 19 -3 4 -2 7
3 7 6 0 18 18 28 40 10 22 22 40 27 40 5 0 9 7 9 15 0 8 7 15 15 15 8 0 14 4
13 9 -2 5 6 17 17 26 11 9 14 14 8 10 -27 -13 -11 6 20 25 17 11 28 20 24 20
-5 0 -2 7 7 15 8 8 19 15 25 15 6 0 11 7 11 16 0 8 4 13 9 10 5 -3 14 0 20 8
7 8 23 17 37 20 14 4 22 11 19 16 -3 5 6 12 20 16 14 3 25 10 25 16 0 5 5 6
10 3 6 -3 10 -2 10 4 0 5 9 8 20 6 11 -2 18 0 15 4 -4 8 31 24 48 22 4 -1 7 3
7 7 0 5 6 9 13 10 22 2 42 7 56 16 10 6 12 5 7 -2 -5 -8 -2 -10 8 -6 9 3 14 9
12 13 -3 4 3 7 12 8 74 3 110 8 126 16 10 5 16 5 13 0 -3 -5 3 -10 14 -10 17
-2 18 1 8 13 -10 12 -9 13 5 8 9 -3 16 -9 16 -13 0 -4 9 -7 19 -7 11 0 17 4
15 8 -3 4 0 8 5 8 6 0 11 -5 11 -11 0 -6 6 -9 14 -6 7 3 19 0 25 -6 9 -9 10
-7 5 8 -7 20 -7 20 14 1 13 -11 22 -14 22 -7 0 9 5 9 20 1 11 -6 20 -7 20 -3
0 4 5 1 10 -7 9 -13 10 -13 10 0 1 12 3 11 11 -2 5 -10 15 -18 20 -18 6 0 7 6
3 13 -5 9 -4 9 6 0 7 -6 19 -9 28 -6 11 5 13 3 7 -7 -6 -10 -4 -12 8 -7 10 3
17 2 17 -4 0 -6 5 -7 10 -4 6 3 10 1 10 -4 0 -6 12 -11 26 -11 14 0 23 -4 19
-10 -4 -6 5 -10 20 -10 14 0 24 -4 21 -9 -3 -5 8 -11 24 -15 19 -3 30 -12 30
-22 0 -10 5 -14 15 -10 9 3 18 -1 21 -9 4 -8 12 -15 20 -15 8 0 14 -3 14 -7 0
-5 13 -17 29 -28 16 -10 28 -22 25 -26 -2 -4 5 -10 16 -14 11 -3 20 -11 20
-16 0 -12 38 -49 51 -49 5 0 8 -4 4 -9 -3 -5 2 -16 10 -24 8 -9 15 -20 15 -26
0 -5 7 -14 16 -19 9 -5 15 -13 15 -18 -2 -18 11 -44 21 -44 5 0 7 -7 4 -15 -3
-9 1 -18 8 -21 8 -3 13 -16 11 -30 -1 -13 2 -27 7 -30 4 -3 5 -10 2 -16 -4 -7
-2 -8 4 -4 8 5 12 -1 12 -14 0 -12 4 -18 10 -15 6 4 7 -2 1 -17 -6 -16 -3 -30
8 -48 9 -13 11 -21 4 -17 -7 5 -9 0 -6 -13 3 -11 10 -23 15 -26 5 -3 4 -12 -3
-20 -9 -11 -9 -14 0 -14 7 0 9 -5 4 -12 -11 -19 -13 -39 -2 -32 13 8 11 -10
-3 -24 -9 -9 -9 -12 1 -12 11 0 11 -3 0 -17 -8 -9 -9 -14 -2 -10 7 5 10 1 8
-10 -2 -10 -4 -24 -4 -31 -1 -7 -6 -10 -12 -6 -7 4 -7 -1 1 -16 8 -15 8 -20 1
-16 -7 5 -11 -3 -12 -18 -2 -35 -3 -39 -13 -55 -7 -10 -5 -12 5 -7 8 4 6 1 -5
-8 -10 -8 -15 -19 -12 -25 3 -5 -1 -17 -10 -25 -11 -12 -12 -16 -2 -16 9 -1 9
-4 -3 -13 -16 -12 -18 -16 -27 -49 -2 -10 -8 -16 -12 -13 -5 3 -7 -3 -6 -12 2
-10 -5 -24 -16 -31 -10 -7 -16 -18 -13 -23 4 -5 1 -9 -6 -9 -7 0 -10 -3 -6 -6
3 -3 -10 -22 -29 -42 -19 -20 -34 -40 -34 -44 0 -4 -7 -8 -15 -8 -8 0 -14 -6
-13 -13 2 -6 -3 -11 -9 -9 -7 1 -13 -2 -13 -8 0 -5 -18 -23 -40 -39 -21 -15
-36 -32 -32 -36 4 -3 2 -5 -3 -4 -16 5 -55 -11 -55 -22 0 -6 -4 -7 -10 -4 -5
3 -10 1 -10 -5 0 -6 -4 -8 -10 -5 -5 3 -10 1 -10 -5 0 -7 -7 -10 -15 -6 -9 3
-15 0 -15 -10 0 -8 -4 -13 -9 -9 -5 3 -13 1 -16 -5 -5 -8 -11 -7 -21 1 -12 10
-13 9 -9 -4 4 -8 2 -18 -4 -22 -6 -3 -11 -1 -11 6 0 9 -4 9 -15 -1 -8 -6 -19
-9 -25 -5 -5 3 -10 -2 -10 -12 0 -15 -2 -16 -10 -3 -6 9 -10 11 -10 3 0 -7 -7
-10 -15 -7 -8 4 -15 2 -15 -4 0 -5 -11 -8 -25 -7 -14 2 -28 -1 -31 -6 -3 -6
-14 -7 -25 -4 -11 4 -19 2 -19 -6 0 -8 -4 -8 -16 2 -13 10 -17 10 -24 0 -5
-10 -9 -10 -15 -2 -5 9 -10 9 -20 1 -10 -8 -14 -7 -18 2 -4 9 -6 10 -6 1 -1
-7 -7 -10 -14 -7 -8 3 -14 -2 -14 -12 0 -9 9 -19 19 -22 10 -2 18 -8 18 -13 0
-5 5 -9 11 -9 6 0 32 -22 59 -50 26 -27 51 -46 54 -42 4 3 4 -1 0 -11 -4 -12
-1 -17 10 -17 9 0 16 -8 16 -17 0 -9 3 -13 7 -10 3 4 23 -11 44 -32 21 -21 41
-36 44 -33 3 3 5 -2 5 -11 0 -10 7 -17 15 -17 8 0 15 -7 15 -15 0 -8 5 -14 12
-13 7 2 13 -3 14 -9 1 -7 2 -17 3 -22 1 -11 17 -9 54 9 20 10 24 16 15 22 -9
5 -6 8 9 8 12 0 25 5 29 12 5 7 3 8 -6 3 -9 -6 -11 -4 -6 4 5 7 14 10 22 7 8
-3 13 -2 12 2 -3 11 72 87 83 84 5 -1 8 1 7 5 -4 12 35 53 44 47 5 -3 7 0 6 8
-2 7 4 12 12 10 8 -2 12 -1 8 3 -4 4 4 17 17 30 14 12 21 26 17 31 -4 4 2 2
13 -6 11 -8 17 -10 13 -6 -4 5 5 20 20 34 15 14 26 30 24 34 -1 4 3 8 9 8 14
0 89 76 89 91 0 5 4 8 9 4 5 -3 12 4 16 15 4 11 11 18 16 15 5 -4 9 0 9 8 0 8
7 17 15 21 8 3 14 11 13 18 -2 7 3 12 10 10 11 -2 16 11 13 31 -1 4 6 10 14
13 8 3 12 10 9 15 -3 5 0 9 6 9 6 0 9 4 5 9 -3 6 4 15 15 21 11 6 20 16 20 22
0 19 33 88 43 88 4 0 6 4 2 9 -3 5 -1 12 5 16 6 4 8 11 5 16 -4 5 -2 9 4 9 6
0 7 7 4 17 -4 9 -2 14 3 11 5 -4 10 7 11 24 0 17 5 33 10 37 4 3 10 22 12 41
4 51 5 54 15 62 12 8 17 40 6 33 -5 -3 -12 -1 -15 5 -4 6 -1 9 7 8 7 -2 13 6
13 17 0 11 -6 19 -13 17 -8 -1 -11 2 -7 8 3 6 11 8 16 5 12 -8 11 2 -2 27 -8
15 -8 19 0 14 8 -5 11 7 9 38 0 25 -6 46 -12 46 -7 0 -6 3 1 8 12 8 11 68 -1
80 -3 3 -1 11 5 19 9 10 8 13 -3 13 -10 0 -15 12 -16 38 -2 67 -3 71 -17 82
-7 6 -10 20 -7 32 4 16 2 19 -9 13 -12 -7 -12 -6 -1 7 10 13 10 17 -4 22 -10
4 -14 13 -11 26 3 11 1 20 -4 20 -5 0 -9 7 -9 16 0 9 -5 12 -12 8 -8 -5 -9 0
-6 14 4 15 2 22 -7 22 -8 0 -17 5 -21 12 -5 7 -3 8 5 3 14 -8 -18 46 -33 56
-5 4 -6 11 -2 17 3 5 -1 12 -9 16 -8 3 -15 12 -15 20 0 7 -7 17 -16 20 -8 3
-12 10 -9 16 3 5 2 10 -3 10 -5 0 -15 11 -22 25 -7 13 -17 22 -22 19 -4 -3 -8
-1 -8 5 0 11 -82 101 -93 101 -12 0 -55 49 -48 56 3 4 1 4 -6 1 -6 -4 -17 -1
-25 6 -12 12 -41 26 -53 26 -3 1 -16 11 -28 24 -12 13 -28 22 -34 20 -7 -3
-13 0 -13 7 0 6 -4 8 -10 5 -5 -3 -10 -1 -10 4 0 6 -7 11 -15 11 -8 0 -15 5
-15 11 0 5 -4 8 -9 4 -5 -3 -12 -1 -16 5 -4 6 -11 8 -16 5 -5 -4 -9 0 -9 7 0
9 -3 9 -10 -2 -9 -13 -10 -13 -11 0 -1 8 -1 18 -1 21 1 4 -8 5 -19 2 -11 -3
-29 2 -42 13 -19 16 -20 17 -8 1 12 -15 12 -17 -3 -11 -9 3 -16 10 -16 16 0 5
-4 6 -10 3 -5 -3 -10 0 -10 7 0 10 -2 10 -9 -1 -6 -10 -10 -10 -16 -1 -4 6
-13 9 -21 6 -8 -3 -14 -1 -14 5 0 6 -7 9 -15 6 -8 -4 -17 -2 -20 2 -3 5 -14 7
-25 4 -11 -3 -20 0 -20 6 0 8 -5 9 -19 1 -13 -7 -22 -7 -26 0 -4 6 -13 7 -23
2 -21 -10 -33 -10 -52 3 -8 5 -48 10 -88 10 -40 1 -67 -2 -61 -6 8 -5 7 -8 -2
-11 -8 -3 -20 2 -27 11 -11 14 -11 14 -6 -1z m104 -4 c0 -8 -19 -13 -24 -6 -3
5 1 9 9 9 8 0 15 -2 15 -3z m-1040 -1125 c0 -5 -4 -9 -8 -9 -5 0 -9 7 -9 15 0
8 4 12 9 9 4 -3 8 -9 8 -15z"/>
<path d="M1350 2570 c0 -4 7 -7 15 -6 23 3 26 12 5 13 -11 1 -20 -2 -20 -7z"/>
<path d="M1282 2104 c-7 -8 -18 -11 -24 -8 -6 4 -8 3 -5 -2 3 -6 -3 -16 -15
-23 -16 -10 -19 -10 -13 1 3 7 -3 3 -14 -10 -11 -13 -24 -23 -28 -24 -22 -2
-53 -19 -53 -29 0 -6 -6 -9 -12 -7 -7 3 -22 -4 -32 -14 -11 -10 -26 -16 -32
-14 -7 3 -15 -2 -18 -10 -3 -9 -10 -13 -15 -10 -5 3 -11 -1 -15 -9 -3 -9 -12
-12 -22 -8 -12 4 -15 3 -10 -5 4 -7 4 -12 -1 -13 -30 -3 -47 -10 -60 -26 -8
-10 -12 -12 -8 -5 3 6 1 12 -4 12 -6 0 -11 -5 -11 -10 0 -6 -11 -15 -25 -20
-14 -5 -25 -14 -25 -20 0 -6 -4 -9 -9 -6 -15 10 -40 -5 -34 -20 3 -8 9 -14 15
-14 5 0 16 -7 25 -15 8 -8 19 -13 24 -10 5 4 9 2 9 -3 0 -5 14 -15 30 -22 17
-7 30 -17 30 -22 0 -5 4 -7 9 -3 5 3 15 0 23 -7 7 -7 20 -14 28 -16 8 -2 17
-8 18 -13 2 -5 8 -7 13 -3 5 3 9 2 9 -3 0 -4 20 -17 45 -28 25 -11 45 -23 45
-27 0 -5 9 -8 20 -8 10 0 23 -7 28 -16 5 -9 12 -16 15 -15 17 1 36 -12 30 -22
-3 -5 -1 -7 4 -4 6 4 30 -8 54 -25 24 -17 38 -25 31 -16 -10 13 -9 15 13 10
15 -2 25 0 25 7 0 7 5 9 10 6 6 -3 13 1 16 9 3 9 10 14 14 11 4 -2 15 4 25 15
10 11 26 20 37 20 10 0 18 7 18 15 0 9 6 12 17 8 11 -5 14 -3 8 6 -6 10 -3 11
14 2 18 -10 20 -9 15 6 -3 10 1 7 10 -7 14 -23 13 -26 -7 -35 -12 -5 -28 -15
-35 -22 -7 -7 -20 -13 -28 -13 -8 0 -14 -5 -14 -11 0 -6 -7 -8 -16 -5 -8 3
-12 2 -9 -4 3 -6 -1 -10 -9 -10 -9 0 -16 -4 -16 -10 0 -5 -9 -10 -21 -10 -11
0 -18 -4 -14 -9 3 -5 -4 -13 -16 -16 -17 -6 -19 -9 -8 -16 8 -5 9 -9 3 -9 -7
0 -8 -17 -4 -50 4 -27 3 -50 -2 -50 -4 0 -3 -12 2 -26 13 -33 13 -37 -2 -28
-9 5 -9 2 1 -9 9 -12 10 -17 2 -17 -9 0 -9 -5 -1 -20 6 -11 7 -20 2 -20 -4 0
-8 -9 -8 -19 0 -11 4 -17 8 -15 4 3 8 0 8 -5 0 -6 -6 -11 -12 -11 -9 0 -8 -4
2 -10 12 -8 12 -10 1 -10 -11 0 -11 -3 -1 -15 10 -12 10 -15 -1 -15 -9 0 -10
-3 -2 -11 7 -7 8 -21 3 -38 -4 -15 -3 -35 2 -44 6 -11 5 -17 -2 -17 -6 0 -8
-5 -4 -12 8 -13 7 -69 -2 -103 -3 -11 -2 -15 3 -9 4 5 23 16 41 23 17 8 32 18
32 23 0 5 5 6 10 3 6 -3 13 1 16 9 3 9 10 13 15 10 5 -3 9 0 9 6 0 6 4 9 9 5
5 -3 17 3 27 12 9 9 24 18 33 20 8 1 17 7 19 12 2 6 12 11 23 11 10 0 19 6 19
13 0 6 12 13 27 14 14 0 30 8 35 17 5 9 13 14 17 11 5 -2 14 2 21 10 7 8 16
12 21 9 5 -3 9 0 9 6 0 6 4 9 9 6 5 -3 12 1 15 10 3 8 10 12 16 9 5 -3 10 -1
10 5 0 6 5 8 10 5 6 -3 10 -1 10 4 0 6 6 11 14 11 8 0 16 7 20 15 3 8 9 15 13
14 21 -3 24 2 12 18 -10 11 -10 14 -1 9 13 -8 17 6 5 18 -10 10 -13 37 -3 31
10 -6 8 15 -3 33 -5 7 -4 12 2 12 6 0 11 5 11 11 0 5 -4 8 -8 5 -15 -9 -7 79
8 92 8 8 10 11 4 8 -7 -3 -18 2 -25 11 -8 10 -9 14 -2 10 17 -10 28 13 12 24
-12 7 -11 9 1 9 13 0 13 1 0 10 -12 8 -12 10 5 10 16 0 17 2 6 9 -17 11 -24
41 -10 41 5 0 9 5 9 11 0 5 -4 8 -9 5 -10 -6 -7 46 3 63 4 6 2 11 -5 11 -7 0
-4 7 7 15 10 8 15 15 9 14 -23 -3 -27 2 -14 18 12 15 12 16 -1 8 -9 -5 -7 0 4
14 15 16 16 20 5 16 -10 -4 -16 0 -16 9 0 9 6 12 16 8 21 -7 12 2 -18 18 -15
8 -21 8 -17 1 4 -6 3 -11 -3 -11 -6 0 -19 -10 -31 -22 -11 -12 -23 -19 -26
-15 -3 3 -15 -3 -27 -13 -11 -11 -23 -17 -28 -15 -4 3 -13 -1 -21 -8 -11 -10
-36 -14 -64 -8 -4 0 -1 7 5 14 6 8 9 16 6 19 -3 2 1 5 8 6 6 0 21 3 32 6 11 2
24 5 28 5 5 1 5 6 1 13 -5 8 -2 9 9 5 10 -3 17 -2 17 3 0 6 7 10 16 10 9 0 12
5 8 12 -5 8 -2 9 9 5 10 -3 17 -2 17 3 0 6 7 10 16 10 8 0 12 5 9 10 -3 6 -1
10 4 10 22 0 10 18 -19 28 -16 6 -37 20 -46 31 -10 11 -21 18 -26 15 -4 -3
-15 2 -24 10 -9 9 -20 14 -25 11 -5 -4 -9 -1 -9 5 0 7 -7 9 -16 6 -8 -3 -13
-2 -10 3 3 5 -8 14 -24 20 -17 5 -30 14 -30 19 0 6 -8 9 -17 8 -10 0 -17 4
-16 11 1 6 -5 10 -14 9 -10 -2 -26 5 -37 15 -10 10 -23 16 -28 13 -4 -3 -8 0
-8 5 0 6 -7 11 -15 11 -9 0 -18 7 -22 16 -5 13 -7 13 -14 2 -7 -10 -9 -9 -9 5
0 10 -4 15 -10 12 -5 -3 -10 -3 -10 2 0 14 -60 44 -60 30 0 -9 -2 -9 -8 -1 -5
9 -11 8 -20 -2z"/>
<path d="M768 1760 c-3 -17 -1 -30 3 -30 5 0 4 -11 -1 -25 -6 -16 -6 -34 0
-50 7 -17 6 -25 -1 -25 -8 0 -8 -4 0 -13 8 -10 7 -17 -2 -27 -8 -8 -8 -11 -1
-7 7 4 14 0 18 -8 3 -8 -2 -18 -11 -23 -11 -7 -12 -11 -4 -17 9 -5 9 -11 -1
-23 -8 -9 -8 -13 -2 -9 12 7 29 -21 19 -31 -3 -3 -5 0 -5 6 0 7 -3 12 -7 12
-5 0 -8 -11 -8 -24 0 -13 3 -22 6 -20 4 2 9 -3 12 -11 4 -8 1 -12 -6 -9 -8 3
-13 -4 -13 -15 0 -11 4 -17 8 -15 4 3 8 0 8 -5 0 -6 -5 -11 -12 -11 -6 0 -3
-7 8 -16 10 -8 13 -12 5 -8 -11 5 -13 3 -8 -9 3 -10 2 -17 -4 -17 -6 0 -7 -5
-3 -12 4 -6 6 -35 5 -64 -2 -50 -1 -54 23 -60 14 -3 23 -10 20 -15 -3 -5 4 -9
15 -9 12 0 21 -4 21 -10 0 -5 9 -10 19 -10 11 0 23 -5 27 -12 5 -7 3 -8 -6 -3
-8 5 -11 4 -7 -2 4 -6 18 -9 32 -8 14 2 23 0 20 -5 -5 -7 51 -38 98 -53 9 -4
17 -11 17 -17 0 -6 4 -9 9 -5 5 3 17 -3 27 -12 10 -10 19 -16 20 -13 2 3 13
-3 24 -13 12 -10 25 -15 30 -12 6 4 10 -1 10 -10 0 -9 4 -14 9 -10 5 3 12 1
16 -5 4 -6 11 -7 17 -4 7 4 8 2 4 -4 -4 -7 3 -14 19 -18 13 -3 22 -10 19 -15
-3 -5 5 -9 18 -9 18 0 20 2 8 10 -8 5 -10 10 -4 10 13 0 12 52 -1 62 -7 5 -6
8 1 8 5 0 10 11 10 25 0 14 -4 25 -9 25 -5 0 -4 6 2 14 9 11 9 20 2 34 -6 11
-7 22 -4 26 11 11 10 46 0 46 -6 0 -2 10 9 22 10 12 14 18 8 15 -12 -7 -26 27
-16 38 10 10 9 45 -2 45 -7 0 -7 3 -1 8 14 10 17 52 4 52 -5 0 -7 5 -3 12 13
20 14 59 2 52 -7 -5 -8 -2 -3 7 20 31 7 88 -16 73 -5 -3 -9 -1 -9 4 0 6 -16
19 -36 31 -19 12 -32 16 -28 9 4 -7 3 -8 -4 -4 -7 4 -12 13 -12 21 0 8 -9 12
-25 10 -14 -1 -24 0 -21 2 9 9 -19 31 -31 26 -7 -3 -16 2 -19 11 -3 9 -15 16
-25 16 -11 0 -22 7 -26 16 -3 8 -11 13 -18 10 -6 -2 -18 4 -26 15 -7 10 -21
19 -31 19 -10 0 -18 5 -18 11 0 5 -4 8 -9 4 -5 -3 -16 2 -24 10 -9 8 -22 15
-31 15 -8 0 -24 10 -35 21 -12 13 -26 19 -36 15 -9 -3 -13 -2 -10 3 3 5 1 12
-4 15 -5 3 -11 -8 -13 -24z m16 -86 c3 -8 2 -12 -4 -9 -6 3 -10 10 -10 16 0
14 7 11 14 -7z"/>
<path d="M1490 460 c0 -5 5 -10 11 -10 5 0 7 5 4 10 -3 6 -8 10 -11 10 -2 0
-4 -4 -4 -10z"/>
</g>
</svg>
